# xmcd CD database file
#
# Track frame offsets:
#	150
#	20688
#	52503
#	84104
#	107842
#	156041
#	187363
#	214429
#	237774
#	261031
#	283629
#
# Disc length: 4159 seconds
#
# Revision: 0
# Processed by: cddbd v1.5.2PL0 Copyright (c) Steve Scherf et al.
# Submitted via: CDex 1.70beta2
#
DISCID=91103d0b
DTITLE=The Savoy Recordings - Adderly Brothers - Part 2
DYEAR=1900
DGENRE=Jazz
TTITLE0=I Married An Angel
TTITLE1=Caribbean Cutie
TTITLE2=Flamingo
TTITLE3=Porky
TTITLE4=Big E
TTITLE5=We'll Be Together Again
TTITLE6=You Better Go Now
TTITLE7=Kuzzin's Buzzin
TTITLE8=A Little Taste (Take 2)
TTITLE9=A Little Tast (Take 3)
TTITLE10=Ann Springs
EXTD=
EXTT0=
EXTT1=
EXTT2=
EXTT3=
EXTT4=
EXTT5=
EXTT6=
EXTT7=
EXTT8=
EXTT9=
EXTT10=
PLAYORDER=
